<mxfile host="app.diagrams.net" modified="2024-06-11T06:12:22.757Z" agent="Mozilla/5.0 (Windows NT 10.0; Win64; x64; rv:126.0) Gecko/20100101 Firefox/126.0" version="24.4.0" etag="t-L5FEPdyzExWJ7tXjCj" type="github">
  <diagram name="第 1 页" id="liIoOhpuaox7JHExIMQy">
    <mxGraphModel>
      <root>
        <mxCell id="0" />
        <mxCell id="1" parent="0" />
      </root>
    </mxGraphModel>
  </diagram>
</mxfile>
